# xmcd CD database file
#
# Track frame offsets:
#	150
#	30889
#	71061
#	97856
#	108212
#	132181
#	157378
#	176146
#	207049
#	233444
#
# Disc length: 3915 seconds
#
# Revision: 0
# Processed by: cddbd v1.5.2PL0 Copyright (c) Steve Scherf et al.
# Submitted via: CDex 1.70beta2
#
DISCID=790f490a
DTITLE=Tom Olstad - Changes (For Mingus)
DYEAR=2007
DGENRE=Jazz
TTITLE0=Fables of Faubus
TTITLE1=Opus 3
TTITLE2=Goodbye Pork Pie Hat
TTITLE3=Monk Bunk and Vice Versa
TTITLE4=Self Portrait in Three Colors
TTITLE5=Free Cell Block F 'tis Nazi USA
TTITLE6=Duke Ellington's Sound of Love
TTITLE7=Remember Rockefeller at Attica
TTITLE8=Nouroog
TTITLE9=Sue's Changes
EXTD=YEAR: 2007
EXTT0=
EXTT1=
EXTT2=
EXTT3=
EXTT4=
EXTT5=
EXTT6=
EXTT7=
EXTT8=
EXTT9=
PLAYORDER=
